<svg xmlns="http://www.w3.org/2000/svg" fill-rule="evenodd" stroke-linejoin="round" stroke-miterlimit="2" clip-rule="evenodd" viewBox="0 0 267 267" id="Creativity">
  <path fill="#bed4e9" d="M224.697,254.167C221.093,241.883 205.563,200.268 211.905,181.539C218.248,162.809 237.806,128.332 231.066,96.146C224.325,63.96 209.278,15.334 163.075,12.758C116.873,10.181 75.474,27.192 61.408,52.412C47.343,77.631 59.047,103.662 52.837,116.379C46.627,129.096 34.207,155.962 34.207,163.072C34.207,170.182 50.926,172.639 50.926,172.639C50.926,172.639 54.854,200.722 64.54,211.936C74.226,223.149 94.846,207.378 107.478,217.519C120.11,227.659 132.689,254.167 132.689,254.167L224.697,254.167Z" class="colorfed29d svgShape"></path>
  <path fill="#2a94f9" d="M149.182 149.638L114.557 118.69C114.557 118.69 95.315 76.125 95.315 76.125 94.368 74.03 91.897 73.098 89.802 74.045 87.707 74.992 86.774 77.463 87.722 79.558L107.327 122.926C107.566 123.455 107.914 123.929 108.347 124.316L143.628 155.852C145.343 157.384 147.979 157.236 149.512 155.522 151.044 153.807 150.896 151.171 149.182 149.638zM96.503 67.139L146.045 53.693C146.045 53.693 184.981 58.343 184.981 58.343 187.265 58.616 189.34 56.983 189.613 54.7 189.885 52.416 188.253 50.341 185.969 50.069L146.23 45.322C145.699 45.259 145.16 45.298 144.644 45.438L94.321 59.097C92.101 59.699 90.788 61.99 91.391 64.209 91.993 66.428 94.284 67.741 96.503 67.139zM188.71 67.908L178 108.271C178 108.271 159.566 148.747 159.566 148.747 158.613 150.839 159.538 153.312 161.631 154.265 163.724 155.219 166.197 154.293 167.15 152.201L185.73 111.406C185.826 111.193 185.905 110.973 185.965 110.747L196.765 70.046C197.355 67.823 196.029 65.54 193.806 64.95 191.584 64.36 189.3 65.686 188.71 67.908z" class="colorf9b22a svgShape"></path>
  <path fill="#2a94f9" d="M113.938 124.282L139.526 100.85C141.221 99.297 141.337 96.659 139.784 94.963 138.231 93.267 135.593 93.151 133.897 94.704L108.31 118.137C106.614 119.69 106.498 122.327 108.051 124.023 109.604 125.719 112.242 125.835 113.938 124.282zM153.301 89.774L186.112 68.877C188.051 67.641 188.623 65.064 187.388 63.124 186.152 61.184 183.575 60.613 181.635 61.848L148.824 82.745C146.884 83.98 146.313 86.558 147.548 88.498 148.783 90.437 151.361 91.009 153.301 89.774zM182.831 106.637L152.331 93.09C150.755 92.39 148.906 93.102 148.206 94.678 147.506 96.254 148.218 98.102 149.794 98.802L180.294 112.349C181.871 113.049 183.719 112.338 184.419 110.762 185.119 109.185 184.408 107.337 182.831 106.637zM146.329 82.418L150.536 50.311C150.835 48.031 149.227 45.937 146.946 45.638 144.666 45.34 142.572 46.948 142.274 49.228L138.067 81.336C137.768 83.616 139.376 85.709 141.656 86.008 143.937 86.307 146.03 84.698 146.329 82.418z" class="colorf9b22a svgShape"></path>
  <path fill="#2a94f9" d="M94.891 76.935L131.352 95.104C133.41 96.129 135.914 95.291 136.939 93.233 137.965 91.175 137.127 88.671 135.068 87.645L98.608 69.476C96.55 68.451 94.046 69.289 93.02 71.347 91.995 73.405 92.833 75.909 94.891 76.935zM157.919 147.124L148.482 99.584C148.034 97.329 145.839 95.861 143.584 96.309 141.328 96.756 139.86 98.951 140.308 101.207L149.745 148.746C150.193 151.002 152.387 152.47 154.643 152.022 156.899 151.574 158.366 149.379 157.919 147.124z" class="colorf9b22a svgShape"></path>
  <circle cx="142.198" cy="90.741" r="10.948" fill="#7cbefe" class="colorfe7c7c svgShape"></circle>
  <circle cx="88.757" cy="68.977" r="10.948" fill="#7cbefe" class="colorfe7c7c svgShape"></circle>
  <circle cx="192.738" cy="60.113" r="10.948" fill="#7cbefe" class="colorfe7c7c svgShape"></circle>
  <circle cx="155.395" cy="157.641" r="10.948" fill="#7cbefe" class="colorfe7c7c svgShape"></circle>
  <circle cx="145.736" cy="49.459" r="6.37" fill="#7cbefe" class="colorfe7c7c svgShape"></circle>
  <circle cx="111.124" cy="121.209" r="6.37" fill="#7cbefe" class="colorfe7c7c svgShape"></circle>
  <circle cx="181.938" cy="109.679" r="6.37" fill="#7cbefe" class="colorfe7c7c svgShape"></circle>
</svg>
