<svg xmlns="http://www.w3.org/2000/svg" enable-background="new 0 0 32 32" viewBox="0 0 32 32" id="Docker">
  <path fill="#bed4e9" d="M26,32H6c-3.314,0-6-2.686-6-6V6c0-3.314,2.686-6,6-6h20c3.314,0,6,2.686,6,6v20C32,29.314,29.314,32,26,32z" class="colorfff9dd svgShape"></path>
  <polygon fill="#77bdff" points="9.241 15.498 10.893 15.498 10.893 13.996 10.891 13.996 9.241 13.996" class="colorffe777 svgShape"></polygon>
  <path fill="#0082ff" d="M23.788,15.358c0.037-0.063,0.165-0.334,0.212-0.433l-0.332-0.225v0.001c-0.36-0.245-1.19-0.334-1.828-0.213c-0.083-0.607-0.418-1.136-1.028-1.611l-0.35-0.235l-0.233,0.354c-0.46,0.703-0.585,1.862-0.092,2.626c-0.218,0.119-0.645,0.281-1.21,0.271H8.061c-0.218,1.285,0.145,2.954,1.1,4.1c0.927,1.11,2.317,1.674,4.135,1.674c3.935,0,6.847-1.834,8.21-5.165C22.04,16.512,23.196,16.505,23.788,15.358z" class="colorffd200 svgShape"></path>
  <rect width="1.652" height="1.502" x="11.191" y="13.996" fill="#77bdff" class="colorffe777 svgShape"></rect>
  <rect width="1.652" height="1.502" x="13.144" y="13.996" fill="#77bdff" class="colorffe777 svgShape"></rect>
  <rect width="1.652" height="1.502" x="17.051" y="13.996" fill="#77bdff" class="colorffe777 svgShape"></rect>
  <rect width="1.652" height="1.52" x="11.191" y="12.172" fill="#77bdff" class="colorffe777 svgShape"></rect>
  <rect width="1.652" height="1.502" x="15.096" y="13.999" fill="#77bdff" class="colorffe777 svgShape"></rect>
  <rect width="1.652" height="1.52" x="15.096" y="12.172" fill="#77bdff" class="colorffe777 svgShape"></rect>
  <rect width="1.652" height="1.535" x="15.096" y="10.333" fill="#77bdff" class="colorffe777 svgShape"></rect>
  <rect width="1.652" height="1.52" x="13.144" y="12.172" fill="#77bdff" class="colorffe777 svgShape"></rect>
</svg>
