<svg xmlns="http://www.w3.org/2000/svg" enable-background="new 0 0 32 32" viewBox="0 0 32 32" id="Figma">
  <path fill="#bed4e9" d="M26,32H6c-3.314,0-6-2.686-6-6V6c0-3.314,2.686-6,6-6h20c3.314,0,6,2.686,6,6v20C32,29.314,29.314,32,26,32z" class="colorfff9dd svgShape"></path>
  <circle cx="18.667" cy="15.999" r="2.665" fill="#77bdff" class="colorffe777 svgShape"></circle>
  <path fill="#0082ff" d="M10.666,21.334c0,1.475,1.194,2.666,2.666,2.666s2.666-1.194,2.666-2.666v-8.001h2.669l0.001,0.001c1.472,0,2.666-1.194,2.666-2.666S20.139,8,18.668,8h-5.336c-1.472,0-2.666,1.194-2.666,2.666c0,1.471,1.194,2.666,2.666,2.666c-1.472,0.003-2.666,1.197-2.666,2.669s1.194,2.666,2.666,2.666C11.86,18.666,10.666,19.86,10.666,21.334z" class="colorffd200 svgShape"></path>
</svg>
