<svg xmlns="http://www.w3.org/2000/svg" enable-background="new 0 0 32 32" viewBox="0 0 32 32" id="Haskell">
  <path fill="#bed4e9" d="M26,32H6c-3.314,0-6-2.686-6-6V6c0-3.314,2.686-6,6-6h20c3.314,0,6,2.686,6,6v20C32,29.314,29.314,32,26,32z" class="colorfff9dd svgShape"></path>
  <polygon fill="#77bdff" points="10.824 21.666 14.609 16 10.824 10.333 8 10.333 11.764 16 8 21.667" class="colorffe777 svgShape"></polygon>
  <polygon fill="#77bdff" points="23.994 13.633 17.732 13.633 18.984 15.525 23.994 15.525" class="colorffe777 svgShape"></polygon>
  <polygon fill="#0082ff" points="11.764 10.333 15.526 16 11.764 21.667 14.609 21.666 16.941 18.093 19.298 21.666 22.116 21.666 14.61 10.333" class="colorffd200 svgShape"></polygon>
  <polygon fill="#77bdff" points="24 16.467 19.617 16.467 20.869 18.358 24 18.357" class="colorffe777 svgShape"></polygon>
</svg>
