<svg xmlns="http://www.w3.org/2000/svg" viewBox="0 0 32 32" id="languagelearning">
  <path fill="#d5e6f7" d="M29.61,24.7c.873-1.454,1.332-3.109,1.332-4.817,0-5.174-4.209-9.383-9.382-9.383s-9.383,4.209-9.383,9.382,4.209,9.383,9.383,9.383c1.456,0,2.897-.345,4.203-1.001l3.684,2.104c.154,.088,.326,.132,.496,.132,.219,0,.437-.072,.617-.213,.32-.251,.456-.671,.344-1.062l-1.293-4.525Z" class="colord5eaf7 svgShape"></path>
  <path fill="#e7f1fb" d="M10.441,1.5C5.268,1.5,1.059,5.709,1.059,10.882c0,1.708,.459,3.364,1.332,4.818l-1.293,4.525c-.112,.391,.024,.811,.344,1.062,.18,.141,.398,.213,.617,.213,.17,0,.342-.044,.496-.132l3.684-2.104c1.305,.656,2.747,1.001,4.203,1.001,5.174,0,9.383-4.209,9.383-9.383S15.615,1.5,10.441,1.5Z" class="coloreaf6fd svgShape"></path>
  <path fill="#b5cde5" d="M25.978 23.106l-3-7c-.157-.368-.519-.606-.919-.606s-.762.238-.919.606l-3 7c-.218.507.018 1.095.525 1.312.507.22 1.096-.018 1.313-.525l.597-1.394h2.967l.597 1.394c.162.38.531.606.919.606.131 0 .265-.025.394-.081.507-.218.743-.806.525-1.312zm-4.545-2.606l.626-1.461.626 1.461h-1.253zM14 8h-2.5v-1.5c0-.553-.448-1-1-1s-1 .447-1 1v1.5h-2.5c-.552 0-1 .447-1 1s.448 1 1 1h.528c.087 1.029.415 2.497 1.399 3.779-.219.097-.44.191-.682.253-.535.139-.855.684-.717 1.219.117.45.522.749.967.749.083 0 .167-.01.251-.032.635-.165 1.22-.419 1.752-.749.532.331 1.117.585 1.753.749.084.022.168.032.251.032.445 0 .851-.299.967-.749.139-.535-.182-1.08-.717-1.219-.242-.063-.463-.156-.682-.253.984-1.283 1.313-2.75 1.399-3.779h.528c.552 0 1-.447 1-1s-.448-1-1-1zm-3.5 4.549c-.638-.844-.876-1.823-.957-2.549h1.915c-.081.726-.319 1.705-.957 2.549z" class="colorb5d4e5 svgShape"></path>
</svg>
