<svg xmlns="http://www.w3.org/2000/svg" enable-background="new 0 0 66 66" viewBox="0 0 66 66" id="ProjectStartUp">
  <path fill="#111e2b" d="M11.65916,36.91211c-0.12,0.12-1.83997,8.08002-1.83997,8.08002L9.69467,62.0616L8.772,62.1552
			c0,0-5.03281-23.04308-5.09281-30.23308c-0.02002-1.97998,1.32001-5.12,1.32001-5.12s1.33002-2.03003,1.33002-2.34003
			s2.22998,0.37006,2.34998,0.44c0.13,0.06,2.57001,5.42004,2.57001,5.62C11.24919,30.72211,11.78917,36.7821,11.65916,36.91211z" class="color111c2b svgShape"></path>
  <path fill="#273440" d="M15.60409,28.75119c0,0,1.09625,8.98693-1.52056,17.44583
			c-1.06806,3.45254-9.06911,14.19306-9.06911,14.19306l-0.7367-0.58838L9.8154,44.99319
			c-0.36267-6.67186-0.88046-13.90062-0.13466-16.59524c0,0,4.11826-2.68806,4.16203-2.55673
			C13.88655,25.97254,15.60409,28.75119,15.60409,28.75119z" class="color273240 svgShape"></path>
  <path fill="#3e6f9d" d="M9.27222 64.99542c-1.43456-.07666-.8561-2.26529-.50022-2.84022l.92268-.09361c0 0 .59594 1.05032.50832 1.42812C10.12088 63.86751 10.70127 65.07757 9.27222 64.99542zM4.27773 59.8017c0 0-1.34855.95377-1.3097 1.22842.03884.27465.17869.94278.17869.94278l.16315-.03885c0 0 .43203.33241.17566 1.07046s.74982 1.65623 1.12175 1.38453c.68723-.50204.40715-3.99896.40715-3.99896L4.27773 59.8017z" class="color9d683e svgShape"></path>
  <path fill="#598cbc" d="M16.74712,20.2022c-0.38876,4.19586-1.14303,8.54899-1.14303,8.54899
			c-3.91078,0.1814-7.51144-0.32352-10.60891-1.94555c0,0-0.31192-5.77142-0.31192-5.7321
			c0,0.03844-3.04298-4.40763-2.60687-5.97961c0.34408-1.23955,4.13774-3.06087,4.13774-3.06087l0.60952-1.17968
			c0.49777,0.83826,1.20289,1.53624,2.21811,2.02331c0.85795-0.51478,1.47192-1.38434,1.97413-2.41831v-0.00092
			c0.00716-0.01519,0.01523-0.03037,0.02234-0.04556l0.61039,0.86955c0,0,1.71318,0.20911,3.12253,0.64434h0.00092
			c0.79092,0.24397,1.48527,0.56034,1.72658,0.95089C17.12602,13.89191,17.04289,17.00104,16.74712,20.2022z" class="color597abc svgShape"></path>
  <path fill="#84bbef" d="M11.01921,9.80213v0.65997c-0.02002,0.04004-0.05005,0.08002-0.07001,0.12006
			c-0.08002,0.16998-0.16998,0.33997-0.26001,0.5c-0.44,0.75995-0.97003,1.38995-1.65002,1.78998
			c-1.00995-0.47998-1.71997-1.17999-2.21997-2.02002L6.59917,9.62213l-0.22998-1.31c0-0.02002-0.01001-0.03003-0.01001-0.04999
			c-0.01001-0.03003-0.01001-0.05005-0.01001-0.06c0.76001,1.19995,1.66003,2.08997,2.92004,2.08997
			C9.77922,10.29212,10.35918,10.14215,11.01921,9.80213z" class="coloref9d84 svgShape"></path>
  <path fill="#9acaf8" d="M11.55389,8.63079c-0.03753,0.72568-0.538,1.16982-0.538,1.16982
			C8.76742,10.97492,7.42955,9.9025,6.34731,8.19826C6.3464,8.19734,6.3464,8.19647,6.3464,8.19647
			C5.61984,7.76863,5.30262,7.23829,5.33988,6.61952c0.01892-0.31422,0.34863-0.51214,0.6295-0.37
			C6.30181,6.41774,6.67933,6.74199,6.7191,7.35284h0.26898V5.74242c0,0,0.64164-0.36284,0.22787-0.91157
			c0,0,2.21366-0.33958,3.57028-1.05274C11.86044,5.00063,11.60394,7.6665,11.55389,8.63079z" class="colorf8b29a svgShape"></path>
  <path fill="#273440" d="M10.78623,3.7781C9.42961,4.49126,7.21595,4.83084,7.21595,4.83084
			c0.41376,0.54873-0.22787,0.91157-0.22787,0.91157v1.61042H6.7191C6.6793,6.74156,6.30128,6.41728,5.96868,6.24916
			C5.69759,6.11213,5.36468,6.29045,5.34166,6.59332c-0.04789,0.63,0.26795,1.16928,1.00474,1.60314c0,0,0,0.00087,0.00092,0.00179
			c0,0.00087,0,0.00179,0,0.00179C6.34819,8.20184,6.34819,8.20271,6.34819,8.2045c0.00179,0.00982,0.00537,0.03042,0.01074,0.059
			c0.00271,0.01431,0.00537,0.03129,0.00895,0.05005l0.23411,1.30479c0,0-4.04566-5.94657-1.02233-7.62402
			c3.02329-1.67745,6.04663-1.04563,6.23344,0.52814C11.87297,3.02563,11.42434,3.44297,10.78623,3.7781z" class="color273240 svgShape"></path>
  <path fill="#4a80b4" d="M16.74919,20.20215l-0.59003,1.26996l-0.14996,0.32001c0.02002-2.32001-1.16998-3.97998-2.76001-5.42999
			c0,0,0-3.85999,1.52002-4.44c0.78998,0.25,1.48999,0.56,1.72998,0.95001C17.12919,13.89215,17.03917,17.00214,16.74919,20.20215z" class="color4a6db4 svgShape"></path>
  <path fill="#9acaf8" d="M15.22917,22.58216c0.16003,1.25995-2.41998,0.72998-2.41998,0.72998s-7.19,4.41998-9.56,3.58002
			C2.67918,26.69214,1.8892,24.9021,1.8892,24.9021l1.46997-2.71997l1.89001,0.51001c2.07001,0.54999,5.13,0.46997,7.33002-0.37
			C12.57921,22.32215,15.0692,21.33216,15.22917,22.58216z" class="colorf8b29a svgShape"></path>
  <path fill="#4a80b4" d="M2.1039,15.01403c1.17129-0.38423,2.73773,2.70478,3.00712,3.90769
			c0.20635,0.9214,0.13761,3.77437,0.13761,3.77437c-1.12832,0.35939-2.24721,1.1737-3.36157,2.20174
			C1.88706,24.89783-0.24452,15.7844,2.1039,15.01403z" class="color4a6db4 svgShape"></path>
  <path fill="#8fc4f7" d="M16.0092,21.79212c0,0-1.10004,2-2.35998,1.65002c-2.48004-0.69-2.20001-9.28003-3.48004-11.52002
			c-0.45996-0.31-1.76996-0.92999-1.06-1.97998C9.8192,8.89215,10.3892,9.5921,10.3892,9.5921s0.06-0.27997,0.29999-0.16998
			c0.22998,0.10999,0.19,1.81,0.19,1.81l2.37,5.13C14.83922,17.81214,16.02922,19.47211,16.0092,21.79212z" class="colorf7aa8f svgShape"></path>
  <path fill="#bed4e9" d="M64.99919,2.64052v29.51001c0,0.90002-0.73999,1.64001-1.64001,1.64001H22.59916
		c-0.89996,0-1.63995-0.73999-1.63995-1.64001V2.64052c0-0.89996,0.73999-1.64001,1.63995-1.64001h40.76001
		C64.2592,1.00051,64.99919,1.74056,64.99919,2.64052z" class="colorcfdeef svgShape"></path>
  <path fill="#e2ecf5" d="M22.59929,32.79061c-0.34717,0-0.64014-0.29297-0.64014-0.64014V2.64071
		c0-0.34717,0.29297-0.64014,0.64014-0.64014h40.76025c0.34668,0,0.63965,0.29297,0.63965,0.64014v29.50976
		c0,0.34717-0.29297,0.64014-0.63965,0.64014H22.59929z" class="colore2ebf5 svgShape"></path>
  <g fill="#000000" class="color000000 svgShape">
    <path fill="#273440" d="M27.71622,9.18885c-0.68882,0.59363-1.32996,1.37213-1.84836,2.29588
			c-0.5184,0.92375-0.84889,1.87659-0.99673,2.77381c-0.32904-0.456-0.63275-0.93606-0.90879-1.43481
			c-0.53748-0.96963-0.97156-2.01555-1.28459-3.12928c1.11373-0.31304,2.23416-0.48786,3.34183-0.53424
			C26.58916,9.13602,27.15557,9.14556,27.71622,9.18885z" class="color273240 svgShape"></path>
    <path fill="#598cbc" d="M33.75284,11.01536c1.95977,1.09981,3.66652,2.65049,4.95149,4.55599l-2.66013,4.74011
			c-4.44815-0.20126-8.58096-2.44808-11.17307-6.05292c0.14784-0.89722,0.47832-1.85007,0.99673-2.77381
			c0.5184-0.92375,1.15954-1.70225,1.84836-2.29588C29.85769,9.34978,31.91631,9.98471,33.75284,11.01536z" class="color597abc svgShape"></path>
    <path fill="#439bf0" d="M27.71622 9.18885c-.68882.59363-1.32996 1.37213-1.84836 2.29588-.5184.92375-.84889 1.87659-.99673 2.77381-.32904-.456-.63275-.93606-.90879-1.43481.18053-.64575.45231-1.3061.81496-1.95231.36268-.64626.78522-1.22071 1.24228-1.71121C26.58916 9.13602 27.15557 9.14556 27.71622 9.18885zM33.75271 11.01559c.55507.3115 1.09088.65961 1.60247 1.0416.42018 1.44391.28227 3.04893-.51064 4.46424-.79391 1.41468-2.09053 2.36815-3.53991 2.76287-.66129-.26311-1.30171-.57509-1.91629-.93312 1.51988-.36308 2.88942-1.33622 3.71427-2.80603.82543-1.47084.94156-3.14733.45959-4.63383C33.62649 10.94476 33.6896 10.98017 33.75271 11.01559zM37.80772 15.25469c0 0 .19998-1.55028 1.32658-1.99538 1.99398-.78779 5.31945 5.25985 5.31945 5.25985s-4.69838-5.53165-5.82903-2.80597L37.80772 15.25469zM35.30673 19.71124c0 0-1.21909.97836-1.01207 2.17188.36639 2.11242 7.26097 1.80023 7.26097 1.80023s-7.16941-1.1285-5.4319-3.51361L35.30673 19.71124zM36.70276 16.78794c.53572.32959 6.62857 4.70867 6.62857 4.70867l0 0c0 0-6.9121-2.91924-7.47253-3.20481-.561-.28453-.34822-1.18481-.34822-1.18481S36.16762 16.45732 36.70276 16.78794z" class="colorf04843 svgShape"></path>
    <g fill="#000000" class="color000000 svgShape">
      <circle cx="27.872" cy="12.609" r=".895" fill="#e2ecf5" class="colore2ebf5 svgShape"></circle>
      <circle cx="30.479" cy="14.073" r="1.309" fill="#e2ecf5" class="colore2ebf5 svgShape"></circle>
    </g>
  </g>
  <path fill="#1e90fd" d="M51.51767,16.95611h-0.00092c-3.20709,0.00092-5.80695,2.60071-5.80695,5.80786
		c0,3.20709,2.60071,5.80695,5.80786,5.80695c3.20709,0,5.80695-2.59985,5.80695-5.80695v-0.00085
		C57.32376,19.55596,54.72477,16.95611,51.51767,16.95611z" class="colorfdbb1e svgShape"></path>
  <path fill="#4a80b4" d="M58.42706,22.76312h-6.91031v-6.90928h0.00108C55.33372,15.85384,58.42604,18.94719,58.42706,22.76312z" class="color4a6db4 svgShape"></path>
  <g fill="#000000" class="color000000 svgShape">
    <path fill="#57a6f1" d="M36.07606 8.09621c.10506-.20642.15814-.30955.2654-.51559.29063.20915.7749.38147 1.26851.38476.37317.0025.86034-.07704.88454-.44817.03104-.47588-.85159-.47386-1.61359-.7365-.39116-.13461-.66612-.40437-.64714-.84924.03236-.75827.86619-1.07148 1.68437-1.06205.43487.00501.95252.10566 1.3147.34319-.11236.20108-.16801.30176-.27834.5033-.34397-.1974-.73198-.29589-1.08123-.29964-.39245-.00428-.87916.08914-.89994.47791-.01195.22078.19992.33536.41091.39994.80963.24771 1.89246.27893 1.82296 1.19678-.05606.74382-.84814 1.02526-1.62278 1.02055C37.10361 8.50842 36.44771 8.38738 36.07606 8.09621zM40.8544 5.58026c-.52543-.03072-.78886-.04336-1.31724-.06311.02069-.22223.03125-.33331.05289-.55558 1.13068.05111 2.25668.12413 3.38445.21974-.03238.22079-.04835.33112-.07983.55191-.52051-.04763-.78152-.06874-1.30525-.10559-.12171.98824-.23248 1.97785-.33206 2.96855C40.97649 8.5771 40.83582 8.56844 40.554 8.55266 40.64302 7.56079 40.74321 6.5699 40.8544 5.58026zM45.3942 8.19711c-.74906-.10283-1.12577-.1485-1.88277-.22798-.19477.30891-.29079.46372-.4801.77411-.28685-.02815-.43054-.04135-.71846-.06606.71687-1.13065 1.45987-2.2384 2.23311-3.33114.28723.03379.43062.05145.71675.08849.37636 1.23828.73922 2.48088 1.08203 3.72888-.28553-.04445-.42865-.0659-.71546-.10695C45.53626 8.71255 45.48923 8.54067 45.3942 8.19711zM45.24941 7.65723c-.18145-.64842-.27395-.97231-.46259-1.61949-.39494.57552-.58759.86483-.96323 1.44625C44.39616 7.54664 44.68138 7.5813 45.24941 7.65723zM49.18921 9.67926c-.20275-.46463-.30607-.69655-.51657-1.1594-.03235-.0028-.07998-.01029-.1432-.02244-.33271-.06379-.49955-.09455-.83403-.15375-.08376.40383-.12481.60582-.20536 1.00988-.27092-.04775-.40671-.07086-.67884-.11551.2225-1.1594.45608-2.31573.70105-3.47059.63571.10605.95215.16306 1.58173.285.87503.16947 1.52086.69927 1.30097 1.55525-.12825.49926-.48877.83494-1.05331.91723.23162.5221.34496.78379.56667 1.30805C49.62141 9.76976 49.47761 9.73904 49.18921 9.67926zM48.93232 6.58795c-.32972-.06348-.49497-.09417-.82639-.15326-.12288.55157-.18281.82749-.29964 1.37966.3245.05751.48635.08739.80918.14918.51009.09767.95926-.00316 1.08249-.5053C49.82243 6.95123 49.44817 6.68738 48.93232 6.58795zM52.04959 7.27349c-.49251-.1219-.73986-.18043-1.23677-.29245.05735-.21516.08622-.32268.14452-.53772 1.06315.24826 2.11805.51635 3.17065.806-.06874.21175-.10283.31769-.17067.52963-.48548-.13711-.72931-.20328-1.21936-.3307-.28455.95192-.55846 1.90706-.82147 2.86515-.26237-.06776-.39388-.10086-.65762-.16567C51.51164 9.18671 51.77526 8.22858 52.04959 7.27349zM55.39423 9.71286c.25802-.75492.39002-1.13171.65993-1.88398.27002.08618.40466.12999.67313.21913C56.45285 8.78776 56.3185 9.1583 56.0556 9.90077c-.23158.65372-.04964 1.07568.5305 1.27767.57684.20074.9828-.01646 1.23336-.66284.28466-.73412.42982-1.10042.72594-1.83147.26014.09568.38979.14422.64831.2427-.30781.7371-.45876 1.10647-.75485 1.84683-.37612.94026-1.1082 1.27232-2.05207.94401C55.46558 11.39726 55.05898 10.69342 55.39423 9.71286zM62.4437 11.65726c-.30462.63037-.98723.9195-1.94228.51011-.29945-.12844-.44987-.19166-.75186-.31613-.15969.37485-.23873.56254-.39536.9383-.24432-.1006-.36694-.15027-.61293-.24819.44514-1.09054.90066-2.17583 1.36714-3.25744.57635.23048.86252.34924 1.43044.5936C62.3486 10.22614 62.82073 10.87752 62.4437 11.65726zM61.81816 11.37294c.2184-.46483-.06594-.79923-.54177-1.00353-.29733-.12761-.44658-.19053-.74626-.31428-.22772.51351-.34016.77074-.56213 1.28603.29317.12084.43917.18228.72999.30687C61.16368 11.84751 61.60099 11.83531 61.81816 11.37294z" class="colorf15b57 svgShape"></path>
  </g>
</svg>
