<svg xmlns="http://www.w3.org/2000/svg" enable-background="new 0 0 32 32" viewBox="0 0 32 32" id="Mongodb">
  <path fill="#bed4e9" d="M26,32H6c-3.314,0-6-2.686-6-6V6c0-3.314,2.686-6,6-6h20c3.314,0,6,2.686,6,6v20C32,29.314,29.314,32,26,32z" class="colorffe6e2 svgShape"></path>
  <path fill="#3b9efc" d="M15.923,8c-0.001,0.013-0.003,0.021-0.003,0.033v0.009h-0.001c-0.001,0.01-0.002,0.017-0.003,0.026v0.01h-0.001c0,0.007-0.001,0.012-0.001,0.017v0.017h-0.002c-0.001,0.005-0.001,0.012-0.002,0.017v0.014h-0.001c0,0.005,0,0.01-0.001,0.014V8.17h-0.001c0,0.007-0.001,0.015-0.001,0.021v0.001c-0.002,0.011-0.004,0.023-0.006,0.033v0.005h-0.001c-0.001,0.003-0.002,0.005-0.002,0.008v0.011h-0.002v0.015h-0.003v0.012h-0.003v0.014h-0.003v0.013H15.88v0.011h-0.004v0.009h-0.003v0.012H15.87v0.009h-0.003v0.009h-0.002v0.01h-0.003c-0.001,0.001-0.001,0.002-0.001,0.003v0.007h-0.002c-0.001,0.001-0.001,0.003-0.001,0.004v0.004h-0.001c-0.001,0.002-0.001,0.005-0.001,0.007c-0.002,0.005-0.005,0.009-0.007,0.014v0.001c-0.001,0.001-0.003,0.003-0.003,0.005v0.005h-0.003v0.005H15.84v0.005h-0.002v0.007h-0.004v0.009h-0.003v0.003h-0.003v0.005h-0.003v0.007h-0.003v0.005h-0.004v0.007h-0.003v0.005h-0.003v0.005H15.81v0.007h-0.003v0.005h-0.003v0.004h-0.003v0.005h-0.004v0.006h-0.003v0.004h-0.003v0.005h-0.003v0.007h-0.003v0.003h-0.002v0.005h-0.004v0.003h-0.003v0.007h-0.003v0.003h-0.003v0.005h-0.003v0.004h-0.002l-0.001,0.003v0.003h-0.001c-0.001,0.001-0.001,0.001-0.001,0.003v0.001h-0.001c-0.001,0.002-0.001,0.003-0.003,0.005v0.002h-0.001c-0.003,0.004-0.005,0.008-0.008,0.012v0.001c-0.001,0.001-0.005,0.004-0.006,0.007v0.001h-0.001C15.741,8.589,15.74,8.59,15.74,8.591v0.002h-0.001l-0.002,0.002v0.001h-0.001c0,0.001-0.001,0.001-0.002,0.003v0.003h-0.002l-0.001,0.001v0.001h-0.001c0,0.001-0.001,0.001-0.001,0.002v0.002h-0.003c0,0.001-0.001,0.001-0.001,0.002v0.004h-0.002v0.003h-0.003V8.62h-0.003v0.005h-0.003V8.62h-0.003v0.003h-0.003v0.004h-0.003v0.005H15.7v0.003h-0.003v0.004h-0.003v0.003h-0.003v0.005h-0.004v0.003h-0.003v0.004h-0.003v0.003h-0.003v0.003h-0.003v0.007h-0.001v0.003H15.67v0.003h-0.003v0.001h-0.003v0.003h-0.003v0.007h-0.003v0.003h-0.003v0.003h-0.003v0.004h-0.003v0.003h-0.003v0.003h-0.003V8.7H15.64v0.007h-0.003V8.71h-0.004v0.003H15.63v0.003h-0.003v0.004h-0.003v0.003h-0.003v0.005h-0.003v0.003h-0.004v0.004h-0.001v0.003H15.61v0.003h-0.003v0.003h-0.003v0.004H15.6v0.003h-0.002c-0.001,0.001-0.001,0.001-0.001,0.001v0.001h-0.001l-0.003,0.003c0,0-0.001,0.001-0.003,0.002v0.004h-0.003v0.003h-0.003v0.003h-0.003v0.003h-0.002L15.579,8.77v0.002h-0.001l-0.001,0.001v0.002h-0.001c-0.003,0.004-0.005,0.007-0.01,0.011c-0.001,0.001-0.005,0.005-0.008,0.007c-0.008,0.005-0.018,0.014-0.027,0.021c-0.005,0.003-0.011,0.008-0.015,0.011v0.001h-0.001c-0.011,0.009-0.021,0.017-0.033,0.026v0.001c-0.016,0.013-0.032,0.026-0.05,0.041V8.893h-0.001c-0.039,0.031-0.08,0.067-0.127,0.106V9h-0.001c-0.115,0.099-0.252,0.225-0.405,0.379l-0.013,0.013c-0.927,0.938-2.387,2.893-2.541,6.051c-0.014,0.261-0.011,0.515,0.004,0.763v0.006c0.074,1.245,0.474,2.307,0.973,3.171v0.001c0.199,0.344,0.414,0.657,0.631,0.937v0.001c0.751,0.97,1.518,1.545,1.713,1.684c0.3,0.682,0.273,1.853,0.273,1.853L16.375,24c0,0-0.089-1.134,0.036-1.681c0.039-0.171,0.131-0.317,0.238-0.441c0.072-0.05,0.286-0.201,0.543-0.43c0.012-0.013,0.019-0.024,0.03-0.036c1.037-0.945,2.973-3.273,2.309-7.066c-0.861-3.707-2.891-4.925-3.109-5.391C16.182,8.626,15.923,8,15.923,8z" class="colorfc573b svgShape"></path>
</svg>
