<svg xmlns="http://www.w3.org/2000/svg" enable-background="new 0 0 32 32" viewBox="0 0 32 32" id="Postgresql">
  <path fill="#e3effa" d="M26,32H6c-3.314,0-6-2.686-6-6V6c0-3.314,2.686-6,6-6h20c3.314,0,6,2.686,6,6v20C32,29.314,29.314,32,26,32z" class="colore3f8fa svgShape"></path>
  <polygon fill="#bed4e9" points="22.636 17.945 22.638 17.942 22.635 17.945 22.635 17.945" class="color8ce1eb svgShape"></polygon>
  <path fill="#bed4e9" d="M20.661,17.818l0.001,0.001v0.001l-0.002,0.001c-0.097,0.035-0.177,0.05-0.244,0.08c-0.068,0.027-0.124,0.077-0.157,0.141l-0.001,0.001c-0.042,0.077-0.077,0.213-0.066,0.444c0.028,0.02,0.061,0.035,0.095,0.046l0.003,0.001c0.113,0.035,0.302,0.057,0.512,0.054c0.42-0.005,0.937-0.104,1.212-0.233c0.236-0.113,0.439-0.249,0.62-0.41c-0.917,0.192-1.435,0.141-1.754,0.008C20.797,17.917,20.725,17.872,20.661,17.818z" class="color8ce1eb svgShape"></path>
  <polygon fill="#bed4e9" points="19.72 10.767 19.724 10.773 19.729 10.779" class="color8ce1eb svgShape"></polygon>
  <path fill="#bed4e9" d="M16.211 20.866c-.001-.017 0-.034-.001-.051 0-.006-.001-.012-.001-.018L16.211 20.866zM15.508 17.924c-.039-.019-.084-.033-.132-.04h-.002v-.001H15.36c-.035.003-.086.015-.184.125-.229.26-.31.423-.498.576-.189.152-.435.233-.925.335-.155.032-.244.067-.304.096.019.016.017.02.046.035.072.04.164.075.238.095.211.053.557.115.919.053.362-.063.738-.238 1.058-.693.055-.079.061-.195.016-.319C15.68 18.061 15.579 17.954 15.508 17.924zM18.2 9.001l-.038.007c.013-.003.026-.004.039-.007C18.201 9.002 18.2 9.002 18.2 9.001zM20.055 12.6c-.447.006-.698.123-.83.275-.186.217-.204.597-.088 1.065.115.469.354.993.578 1.428.112.218.221.414.308.573.088.16.153.273.192.37.036.089.076.168.117.241.173-.37.204-.733.186-1.112-.023-.469-.13-.948-.115-1.433.018-.567.128-.937.138-1.375C20.396 12.612 20.226 12.6 20.055 12.6zM20.138 12.937l-.001.005c0 .002 0 .004 0 .007 0 .031-.009.06-.024.084l.001-.001c-.02.038-.045.071-.072.1-.065.073-.153.123-.252.141l-.003.001c-.014.002-.03.003-.047.003-.084 0-.161-.027-.225-.072l.001.001c-.033-.023-.061-.049-.085-.078l-.001-.001c-.02-.023-.036-.052-.041-.083v-.001c0-.003-.001-.007-.001-.01 0-.029.011-.055.028-.075.021-.025.047-.045.076-.059l.001-.001c.063-.036.149-.063.246-.077.036-.005.072-.008.105-.009v.002h.033c.043.001.084.006.118.015.036.008.066.02.091.037C20.113 12.881 20.132 12.906 20.138 12.937L20.138 12.937z" class="color8ce1eb svgShape"></path>
  <path fill="#2682da" d="M12.718,15.538c0-0.12,0.009-0.237,0.026-0.353l-0.001,0.013c0.068-0.493,0.077-0.953,0.069-1.317c-0.008-0.355-0.033-0.591-0.033-0.738c0-0.002,0-0.004,0-0.006c0-0.002,0-0.005,0-0.007v-0.003l-0.001-0.004v-0.001c0-0.001,0-0.002,0-0.003c0-0.79,0.139-1.546,0.39-2.248c0.184-0.496,0.459-1,0.87-1.407c-0.404-0.135-1.122-0.34-1.899-0.379c-0.074-0.004-0.162-0.007-0.25-0.007H11.89v0.001c-0.084,0-0.167,0.003-0.25,0.007c-0.665,0.039-1.294,0.234-1.744,0.717c-0.451,0.483-0.747,1.274-0.682,2.584c0.013,0.248,0.119,0.943,0.302,1.768c0.183,0.825,0.441,1.797,0.752,2.655c0.311,0.858,0.689,1.605,1.047,1.958c0.18,0.177,0.337,0.248,0.479,0.242c0.143-0.007,0.315-0.09,0.525-0.345c0.413-0.503,0.803-0.947,1.205-1.379l-0.013,0.014C13.024,16.869,12.718,16.24,12.718,15.538z" class="color26c6da svgShape"></path>
  <path fill="#2682da" d="M16.264,9.045V9.044c-0.778,0.002-1.337,0.24-1.76,0.597c-0.437,0.369-0.73,0.873-0.922,1.39c-0.228,0.613-0.307,1.207-0.338,1.609l0.009-0.005c0.235-0.133,0.544-0.267,0.875-0.344s0.687-0.101,1.01,0.026c0.323,0.127,0.589,0.425,0.686,0.877c0.464,2.171-0.144,2.979-0.368,3.588c-0.071,0.175-0.146,0.401-0.207,0.631l-0.011,0.045c0.028-0.007,0.057-0.015,0.085-0.017c0.158-0.013,0.282,0.04,0.356,0.072c0.225,0.095,0.38,0.293,0.464,0.52c0.022,0.059,0.038,0.123,0.047,0.189c0.009,0.023,0.013,0.049,0.013,0.077c0,0.002,0,0.005,0,0.008c-0.011,0.333-0.017,0.725-0.017,1.118c0,0.466,0.01,0.93,0.027,1.392c0.015,0.351,0.037,0.661,0.065,0.906c0.028,0.249,0.068,0.438,0.094,0.502c0.084,0.213,0.207,0.493,0.43,0.683c0.223,0.189,0.542,0.316,1.125,0.189c0.506-0.11,0.818-0.263,1.027-0.482c0.209-0.219,0.333-0.525,0.412-0.992c0.119-0.7,0.359-2.73,0.388-3.112c-0.013-0.288,0.029-0.509,0.12-0.678c0.093-0.173,0.238-0.279,0.364-0.337c0.063-0.029,0.121-0.048,0.169-0.062c-0.059-0.085-0.111-0.155-0.166-0.224l0.006,0.007c-0.173-0.211-0.32-0.453-0.431-0.713l-0.007-0.019c-0.067-0.139-0.124-0.245-0.183-0.348l0.014,0.026c-0.088-0.16-0.198-0.36-0.314-0.585c-0.232-0.45-0.484-0.995-0.615-1.527c-0.13-0.531-0.15-1.08,0.185-1.467c0.296-0.344,0.817-0.487,1.598-0.407c-0.023-0.07-0.037-0.128-0.076-0.221c-0.19-0.446-0.419-0.832-0.69-1.182c-0.662-0.855-1.732-1.701-3.384-1.728H16.264z" class="color26c6da svgShape"></path>
  <path fill="#bed4e9" d="M15.748,19.111c0,0.008,0,0.016,0,0.023l0,0V19.111z" class="color8ce1eb svgShape"></path>
  <polygon fill="#bed4e9" points="13.234 13.18 13.235 13.179 13.237 13.177" class="color8ce1eb svgShape"></polygon>
  <path fill="#bed4e9" d="M17.487,8.281c0.011-0.003,0.023-0.004,0.034-0.008l0.013-0.004L17.487,8.281z" class="color8ce1eb svgShape"></path>
  <polygon fill="#bed4e9" points="14.214 12.729 14.221 12.728 14.226 12.726" class="color8ce1eb svgShape"></polygon>
  <polygon fill="#bed4e9" points="14.698 12.927 14.697 12.927 14.696 12.927" class="color8ce1eb svgShape"></polygon>
  <path fill="#bed4e9" d="M15.04 16.625c.267-.729.794-1.261.35-3.337-.073-.34-.216-.477-.414-.555-.096-.035-.207-.056-.324-.056-.007 0-.015 0-.022 0l.001 0c-.142.001-.279.019-.411.051-.28.071-.527.171-.756.299-.086.047-.16.097-.229.152l-.013.012c.004.097.023.333.031.681.008.38-.001.865-.074 1.389-.157 1.14.66 2.084 1.62 2.085C14.856 17.112 14.948 16.875 15.04 16.625zM14.473 13.312L14.473 13.312c-.031-.032-.057-.068-.077-.107l-.001-.003c-.018-.028-.028-.062-.028-.099 0-.007.001-.013.001-.02v.001c.01-.072.068-.109.126-.13.052-.017.111-.027.174-.027.009 0 .019 0 .029.001l-.001-.003c.035 0 .072.003.109.009.101.014.19.041.259.081.034.019.063.042.087.07l.001.001c.022.026.036.06.036.098 0 .005 0 .011-.001.016v-.001c-.007.04-.024.075-.049.103-.027.033-.058.062-.093.086l-.001.001c-.068.049-.152.079-.244.079-.018 0-.036-.001-.053-.003h.002C14.638 13.445 14.543 13.39 14.473 13.312zM13.451 13.033c.004-.002.009-.004.013-.007.001 0 .002-.001.002-.002L13.451 13.033z" class="color8ce1eb svgShape"></path>
  <path fill="#2682da" d="M20.077,10.501c0.288,0.37,0.539,0.791,0.732,1.243l0.014,0.037c0.072,0.176,0.121,0.325,0.149,0.44c0.014,0.058,0.023,0.107,0.026,0.157c0.001,0.025,0.003,0.051-0.008,0.096c0,0.002-0.003,0.007-0.004,0.009c0.02,0.584-0.123,0.98-0.14,1.537c-0.013,0.404,0.089,0.879,0.114,1.397c0.024,0.487-0.034,1.021-0.346,1.546c0.026,0.032,0.05,0.064,0.075,0.096c0.826-1.317,1.421-2.773,1.739-4.015c0.17-0.669,0.26-1.275,0.268-1.755c0.007-0.48-0.082-0.828-0.194-0.973c-0.884-1.144-2.08-1.435-3.082-1.443v0.001h-0.096c-0.387,0.006-0.76,0.051-1.121,0.129C19.021,9.37,19.641,9.936,20.077,10.501z" class="color26c6da svgShape"></path>
  <path fill="#bed4e9" d="M16.374,8.172h-0.007c-0.776-0.013-1.442,0.177-1.98,0.495c-0.53-0.186-1.628-0.507-2.786-0.443c-0.806,0.045-1.686,0.293-2.338,0.989c-0.65,0.697-0.994,1.775-0.921,3.241c0.02,0.405,0.134,1.065,0.323,1.919c0.189,0.855,0.454,1.855,0.786,2.768c0.331,0.913,0.694,1.733,1.261,2.291c0.283,0.279,0.673,0.514,1.133,0.495c0.323-0.013,0.614-0.157,0.866-0.368c0.123,0.163,0.254,0.235,0.373,0.301c0.15,0.083,0.296,0.14,0.448,0.177c0.272,0.069,0.738,0.161,1.283,0.067c0.186-0.031,0.381-0.093,0.576-0.18c0.007,0.22,0.016,0.435,0.024,0.653c0.027,0.691,0.044,1.329,0.249,1.888c0.033,0.091,0.123,0.562,0.479,0.977c0.356,0.416,1.052,0.675,1.846,0.503c0.56-0.121,1.272-0.34,1.745-1.021c0.468-0.673,0.678-1.639,0.72-3.206c0.011-0.085,0.023-0.157,0.036-0.224l0.111,0.01h0.013c0.597,0.027,1.245-0.059,1.787-0.313c0.479-0.225,0.842-0.452,1.106-0.855c0.066-0.1,0.138-0.221,0.158-0.429c0.02-0.208-0.098-0.533-0.294-0.683c-0.392-0.301-0.638-0.187-0.902-0.131c-0.235,0.055-0.507,0.09-0.786,0.097h-0.005c0.761-1.298,1.307-2.677,1.619-3.897c0.184-0.72,0.288-1.384,0.296-1.965c0.009-0.581-0.038-1.095-0.382-1.539c-1.074-1.389-2.584-1.773-3.753-1.787c-0.036-0.001-0.072-0.001-0.109-0.001V8c-0.636,0.005-1.248,0.101-1.828,0.273l-0.028,0.009C17.159,8.219,16.77,8.179,16.374,8.172z M17.954,8.597c0.408-0.101,0.877-0.161,1.36-0.167h0.004l0.001-0.003c1.105-0.011,2.517,0.303,3.531,1.615c0.228,0.295,0.296,0.725,0.288,1.256c-0.009,0.53-0.105,1.165-0.282,1.86c-0.344,1.347-0.993,2.917-1.908,4.325c0.03,0.022,0.065,0.041,0.101,0.056l0.003,0.001c0.191,0.08,0.626,0.149,1.495-0.032c0.219-0.047,0.379-0.078,0.545,0.05c0.074,0.064,0.121,0.159,0.121,0.265c0,0.007,0,0.013-0.001,0.02v-0.001c-0.01,0.085-0.04,0.16-0.086,0.224c-0.168,0.255-0.499,0.497-0.924,0.696c-0.376,0.177-0.915,0.27-1.394,0.275c-0.24,0.003-0.461-0.016-0.649-0.075l-0.012-0.005c-0.072,0.707-0.239,2.102-0.348,2.739c-0.087,0.513-0.239,0.921-0.529,1.227c-0.29,0.305-0.7,0.489-1.252,0.609c-0.684,0.149-1.182-0.011-1.503-0.285c-0.321-0.273-0.468-0.636-0.556-0.858c-0.061-0.153-0.092-0.352-0.123-0.617c-0.03-0.265-0.053-0.59-0.068-0.956c-0.015-0.372-0.022-0.809-0.022-1.249c0-0.145,0.001-0.289,0.002-0.433c-0.275,0.256-0.624,0.436-1.01,0.505l-0.012,0.002c-0.454,0.078-0.859,0.001-1.1-0.06c-0.129-0.033-0.241-0.079-0.346-0.136c-0.111-0.06-0.216-0.129-0.286-0.263c-0.028-0.051-0.045-0.113-0.045-0.179c0-0.026,0.003-0.052,0.008-0.076c0.024-0.089,0.074-0.165,0.142-0.219l0.001-0.001c0.13-0.107,0.303-0.167,0.563-0.222c0.474-0.099,0.639-0.166,0.74-0.247c0.086-0.069,0.182-0.209,0.354-0.415c-0.001-0.006-0.001-0.016-0.002-0.025v-0.002c-0.323-0.009-0.623-0.097-0.886-0.244l0.01,0.005c-0.099,0.105-0.603,0.645-1.218,1.395c-0.259,0.313-0.545,0.493-0.846,0.506c-0.302,0.013-0.574-0.141-0.806-0.368c-0.463-0.455-0.833-1.239-1.155-2.124c-0.321-0.885-0.583-1.871-0.769-2.711c-0.186-0.84-0.296-1.517-0.312-1.844c-0.069-1.388,0.252-2.323,0.802-2.913c0.551-0.59,1.305-0.813,2.041-0.856c1.321-0.077,2.574,0.389,2.828,0.489c0.489-0.336,1.118-0.545,1.905-0.532c0.396,0.006,0.776,0.059,1.141,0.153l-0.034-0.007l0.013-0.006c0.127-0.048,0.29-0.097,0.456-0.137L17.954,8.597z" class="color8ce1eb svgShape"></path>
</svg>
